<svg width="25" height="25" viewBox="0 0 25 25" fill="none" xmlns="http://www.w3.org/2000/svg">
<path d="M8.84333 10.905C10.0921 13.0989 11.909 14.9158 14.1029 16.1646L15.2794 14.517C15.4685 14.252 15.7483 14.0656 16.0656 13.993C16.383 13.9204 16.7159 13.9667 17.0015 14.123C18.8837 15.1517 20.9624 15.7703 23.1008 15.9383C23.4345 15.9648 23.7461 16.116 23.9732 16.3619C24.2004 16.6079 24.3266 16.9304 24.3265 17.2652V23.2035C24.3266 23.533 24.2044 23.8508 23.9836 24.0954C23.7629 24.34 23.4592 24.494 23.1314 24.5277C22.4261 24.6009 21.7154 24.6368 20.9994 24.6368C9.60724 24.6368 0.371094 15.4006 0.371094 4.00851C0.371094 3.29251 0.407027 2.58183 0.480224 1.87648C0.513834 1.54868 0.667854 1.24501 0.912473 1.02424C1.15709 0.803468 1.47491 0.681295 1.80443 0.681366H7.74271C8.0775 0.681324 8.40001 0.807467 8.64594 1.03464C8.89186 1.26182 9.04312 1.57334 9.06957 1.90708C9.23756 4.0455 9.85621 6.12414 10.8849 8.0064C11.0412 8.29195 11.0874 8.6249 11.0148 8.94225C10.9422 9.2596 10.7559 9.53934 10.4909 9.72853L8.84333 10.905ZM5.48691 10.0306L8.01553 8.22466C7.29791 6.67567 6.80625 5.03172 6.55558 3.34308H3.04612C3.03813 3.564 3.03414 3.78625 3.03414 4.00851C3.03281 13.9314 11.0765 21.9751 20.9994 21.9751C21.2216 21.9751 21.4439 21.9711 21.6648 21.9618V18.4523C19.9762 18.2016 18.3322 17.71 16.7832 16.9923L14.9772 19.521C14.2501 19.2385 13.5439 18.9049 12.8638 18.5228L12.7867 18.4789C10.1763 16.9933 8.01458 14.8316 6.52897 12.2212L6.48505 12.144C6.10297 11.464 5.76943 10.7577 5.48691 10.0306Z" fill="white"/>
</svg>
