<svg width="219" height="47" viewBox="0 0 219 47" fill="none" xmlns="http://www.w3.org/2000/svg">
<g clip-path="url(#clip0_18_198)">
<path d="M25.3847 24.9032H47.5115V47H25.3847V24.9032Z" fill="white"/>
<path d="M0.947845 24.9032H23.0746V47H0.947845V24.9032Z" fill="white"/>
<path d="M77.9042 27.2821L76.6047 30.9589H76.4965C76.2799 30.1298 75.8828 28.8681 75.2331 27.3542L68.2666 9.8714H61.4445V37.7357H65.9565V20.5413C65.9565 19.4599 65.9565 18.2343 65.9204 16.7203C65.8843 15.9633 65.8121 15.3866 65.776 14.954H65.8843C66.1008 16.0354 66.3535 16.8285 66.534 17.3331L74.9082 37.6636H78.0847L86.3867 17.1529C86.5672 16.6843 86.7477 15.747 86.9281 14.954H87.0364C86.9281 17.0087 86.856 18.8471 86.8199 19.9645V37.6275H91.6206V9.7993H85.0512L77.9042 27.2821V27.2821ZM96.1687 17.6575H100.861V37.6275H96.1687V17.6575ZM98.551 9.22255C97.7569 9.22255 97.1072 9.51093 96.5657 10.0156C96.0243 10.5202 95.7355 11.1691 95.7355 11.9621C95.7355 12.7191 96.0243 13.3679 96.5657 13.8726C97.1072 14.3773 97.7569 14.6296 98.551 14.6296C99.3451 14.6296 100.031 14.3412 100.536 13.8726C101.078 13.3679 101.366 12.7191 101.366 11.9621C101.366 11.2051 101.078 10.5563 100.536 10.0156C100.067 9.51093 99.3812 9.22255 98.551 9.22255V9.22255ZM117.501 17.4773C116.635 17.2971 115.733 17.1889 114.866 17.1889C112.737 17.1889 110.787 17.6575 109.163 18.5948C107.539 19.532 106.239 20.8297 105.409 22.4518C104.543 24.1099 104.11 26.0204 104.11 28.2193C104.11 30.1298 104.543 31.824 105.373 33.374C106.203 34.888 107.358 36.1136 108.911 36.9426C110.39 37.7717 112.123 38.2043 114.072 38.2043C116.31 38.2043 118.223 37.7357 119.739 36.8706L119.775 36.8345V32.5089L119.595 32.6531C118.909 33.1577 118.115 33.5903 117.321 33.8426C116.491 34.131 115.733 34.2752 115.083 34.2752C113.206 34.2752 111.726 33.7345 110.679 32.5449C109.596 31.3914 109.055 29.8054 109.055 27.8228C109.055 25.7681 109.596 24.146 110.715 22.9564C111.834 21.7669 113.314 21.1541 115.119 21.1541C116.635 21.1541 118.187 21.6587 119.595 22.6681L119.775 22.8122V18.2343L119.739 18.1982C119.126 17.9459 118.44 17.6575 117.501 17.4773V17.4773ZM132.986 17.3331C131.831 17.3331 130.748 17.6936 129.81 18.4506C129.016 19.0994 128.474 20.0366 128.005 21.1541H127.969V17.6575H123.277V37.6275H127.969V27.4263C127.969 25.696 128.33 24.2541 129.124 23.2088C129.918 22.1274 130.929 21.5867 132.156 21.5867C132.589 21.5867 133.023 21.6948 133.564 21.7669C134.069 21.9111 134.43 22.0553 134.683 22.2355L134.863 22.3797V17.6936L134.755 17.6575C134.43 17.4413 133.781 17.3331 132.986 17.3331V17.3331ZM145.764 17.225C142.48 17.225 139.845 18.1982 138.004 20.1087C136.127 22.0192 135.224 24.6506 135.224 27.967C135.224 31.067 136.163 33.5903 137.968 35.4287C139.772 37.231 142.227 38.1682 145.295 38.1682C148.508 38.1682 151.07 37.195 152.911 35.2484C154.788 33.3019 155.691 30.7065 155.691 27.4983C155.691 24.3262 154.824 21.8029 153.056 19.9645C151.359 18.1261 148.869 17.225 145.764 17.225V17.225ZM149.518 32.581C148.652 33.6984 147.28 34.2391 145.584 34.2391C143.887 34.2391 142.516 33.6984 141.541 32.5089C140.567 31.3914 140.097 29.7693 140.097 27.7146C140.097 25.5879 140.603 23.9658 141.541 22.8122C142.516 21.6587 143.851 21.082 145.548 21.082C147.208 21.082 148.508 21.6227 149.446 22.7402C150.385 23.8576 150.89 25.4797 150.89 27.6065C150.818 29.7693 150.421 31.4635 149.518 32.581V32.581ZM166.159 25.9483C164.679 25.3355 163.74 24.8669 163.307 24.4704C162.946 24.1099 162.765 23.6053 162.765 22.9564C162.765 22.4157 162.982 21.875 163.524 21.5146C164.065 21.1541 164.679 20.9739 165.581 20.9739C166.375 20.9739 167.205 21.118 167.999 21.3343C168.793 21.5506 169.515 21.875 170.093 22.3076L170.273 22.4518V18.0541L170.165 18.018C169.624 17.8017 168.902 17.5854 168.035 17.4052C167.169 17.261 166.375 17.1889 165.725 17.1889C163.487 17.1889 161.647 17.7296 160.203 18.9192C158.759 20.0366 158.073 21.5506 158.073 23.3169C158.073 24.2541 158.217 25.0832 158.542 25.7681C158.867 26.453 159.336 27.1018 159.986 27.6425C160.636 28.1472 161.574 28.7239 162.874 29.2647C163.957 29.7333 164.787 30.0937 165.292 30.3821C165.798 30.6705 166.122 30.9949 166.375 31.2472C166.556 31.5356 166.664 31.8961 166.664 32.3647C166.664 33.6984 165.653 34.3473 163.596 34.3473C162.802 34.3473 161.971 34.2031 160.997 33.8787C160.022 33.5542 159.12 33.0856 158.362 32.5449L158.181 32.4007V36.9787L158.29 37.0147C158.975 37.3392 159.806 37.5554 160.816 37.8078C161.827 37.988 162.729 38.1322 163.524 38.1322C165.942 38.1322 167.927 37.5915 169.335 36.4019C170.779 35.2484 171.537 33.7705 171.537 31.86C171.537 30.5263 171.176 29.3367 170.382 28.4356C169.335 27.5704 168.035 26.6693 166.159 25.9483V25.9483ZM183.918 17.225C180.633 17.225 177.998 18.1982 176.157 20.1087C174.316 22.0192 173.378 24.6506 173.378 27.967C173.378 31.067 174.316 33.5903 176.121 35.4287C177.926 37.231 180.38 38.1682 183.448 38.1682C186.661 38.1682 189.224 37.195 191.065 35.2484C192.942 33.3019 193.844 30.7065 193.844 27.4983C193.844 24.3262 192.978 21.8029 191.209 19.9645C189.512 18.1261 187.022 17.225 183.918 17.225V17.225ZM187.636 32.581C186.769 33.6984 185.398 34.2391 183.701 34.2391C181.968 34.2391 180.633 33.6984 179.658 32.5089C178.684 31.3914 178.215 29.7693 178.215 27.7146C178.215 25.5879 178.72 23.9658 179.658 22.8122C180.633 21.6587 181.968 21.082 183.665 21.082C185.289 21.082 186.625 21.6227 187.563 22.7402C188.502 23.8576 189.007 25.4797 189.007 27.6065C189.007 29.7693 188.538 31.4635 187.636 32.581V32.581ZM218.931 21.5146V17.6575H214.202V11.7458L214.058 11.7819L209.582 13.1156L209.474 13.1517V17.6575H202.399V15.1342C202.399 13.9807 202.687 13.0796 203.193 12.5028C203.698 11.9261 204.456 11.6377 205.395 11.6377C206.044 11.6377 206.73 11.7819 207.488 12.1063L207.669 12.2144V8.14115L207.56 8.1051C206.911 7.88882 206.044 7.74463 204.925 7.74463C203.518 7.74463 202.29 8.06905 201.171 8.60976C200.052 9.22255 199.222 10.0516 198.609 11.1691C197.995 12.2505 197.67 13.4761 197.67 14.8819V17.6575H194.385V21.4785H197.67V37.6275H202.399V21.5146H209.474V31.7879C209.474 36.0054 211.459 38.1322 215.429 38.1322C216.079 38.1322 216.765 38.0241 217.415 37.9159C218.1 37.7717 218.606 37.5915 218.895 37.4473L218.931 37.4113V33.5542L218.75 33.6984C218.461 33.8787 218.209 34.0228 217.776 34.131C217.415 34.2391 217.09 34.2752 216.837 34.2752C215.899 34.2752 215.249 34.0589 214.78 33.5182C214.346 33.0135 214.13 32.1845 214.13 30.9589V21.5146H218.931V21.5146Z" fill="white"/>
<path d="M25.3847 0.499451H47.5115V22.5962H25.3847V0.499451Z" fill="white"/>
<path d="M0.947845 0.499451H23.0746V22.5962H0.947845V0.499451Z" fill="white"/>
</g>
<defs>
<clipPath id="clip0_18_198">
<rect width="218.019" height="46.5005" fill="white" transform="translate(0.947845 0.499451)"/>
</clipPath>
</defs>
</svg>
