<svg width="139" height="59" viewBox="0 0 139 59" fill="none" xmlns="http://www.w3.org/2000/svg">
<path d="M74.9909 13.6157H65.376V47.2215H74.9909V13.6157Z" fill="white"/>
<path fill-rule="evenodd" clip-rule="evenodd" d="M55.0714 16.4578L54.4585 13.6157H46.1842V47.2216H55.7609V24.4464C58.021 21.4891 61.8517 22.0268 63.0392 22.4493V13.6157C61.8134 13.1549 57.3315 12.3099 55.0714 16.4578Z" fill="white"/>
<path fill-rule="evenodd" clip-rule="evenodd" d="M138.235 30.5531C138.235 20.721 133.485 12.9628 124.407 12.9628C115.29 12.9628 109.773 20.721 109.773 30.4763C109.773 42.0367 116.286 47.8745 125.632 47.8745C130.191 47.8745 133.639 46.8375 136.243 45.378V37.6967C133.639 39.0025 130.651 39.8091 126.858 39.8091C123.143 39.8091 119.848 38.5033 119.427 33.9713H138.159C138.159 33.472 138.235 31.4748 138.235 30.5531ZM119.312 26.9044C119.312 22.5645 121.955 20.7594 124.368 20.7594C126.705 20.7594 129.195 22.5645 129.195 26.9044H119.312Z" fill="white"/>
<path fill-rule="evenodd" clip-rule="evenodd" d="M94.9871 12.9628C91.233 12.9628 88.8197 14.7295 87.4789 15.9585L86.981 13.5773H78.5535V58.3595L88.1302 56.3239L88.1685 45.4548C89.5475 46.4534 91.5778 47.8745 94.9488 47.8745C101.806 47.8745 108.05 42.3439 108.05 30.169C108.011 19.0311 101.691 12.9628 94.9871 12.9628ZM92.6887 39.425C90.4286 39.425 89.0878 38.6185 88.1685 37.6199L88.1302 23.371C89.1261 22.2572 90.5052 21.4891 92.6887 21.4891C96.1746 21.4891 98.5879 25.4066 98.5879 30.4378C98.5879 35.5843 96.2129 39.425 92.6887 39.425Z" fill="white"/>
<path fill-rule="evenodd" clip-rule="evenodd" d="M10.0227 23.371C10.0227 21.8732 11.2485 21.2971 13.2787 21.2971C16.1901 21.2971 19.8675 22.1804 22.7788 23.7551V14.7295C19.5994 13.4621 16.4582 12.9628 13.2787 12.9628C5.50247 12.9628 0.331055 17.0339 0.331055 23.8319C0.331055 34.4321 14.8876 32.7422 14.8876 37.3126C14.8876 39.0793 13.3554 39.6554 11.2102 39.6554C8.03072 39.6554 3.9702 38.3496 0.752429 36.5829V45.7237C4.31496 47.2599 7.9158 47.9129 11.2102 47.9129C19.178 47.9129 24.6559 43.957 24.6559 37.0822C24.6175 25.637 10.0227 27.6726 10.0227 23.371Z" fill="white"/>
<path fill-rule="evenodd" clip-rule="evenodd" d="M35.918 5.28156L26.5712 7.2787L26.5329 38.0424C26.5329 43.7266 30.7849 47.9129 36.4543 47.9129C39.5955 47.9129 41.8939 47.3368 43.158 46.6455V38.849C41.9322 39.3483 35.8797 41.115 35.8797 35.4308V21.7964H43.158V13.6158H35.8797L35.918 5.28156Z" fill="white"/>
<path fill-rule="evenodd" clip-rule="evenodd" d="M65.376 10.6969L74.9909 8.6229V0.826355L65.376 2.86191V10.6969Z" fill="white"/>
</svg>
