<svg width="154" height="52" viewBox="0 0 154 52" fill="none" xmlns="http://www.w3.org/2000/svg">
<path d="M149.102 31.3071L153.371 34.1745C151.986 36.2308 148.672 39.7584 142.942 39.7584C135.827 39.7584 130.527 34.2122 130.527 27.1569C130.527 19.6488 135.883 14.5554 142.343 14.5554C148.84 14.5554 152.023 19.762 153.053 22.5728L153.615 24.0065L136.875 30.9864C138.148 33.5143 140.133 34.797 142.942 34.797C145.751 34.797 147.698 33.4011 149.102 31.3071ZM135.976 26.7608L147.155 22.0824C146.537 20.5166 144.702 19.4036 142.511 19.4036C139.721 19.4036 135.845 21.8937 135.976 26.7608Z" fill="white"/>
<path d="M92.91 27.1569C92.91 34.4198 87.2926 39.7584 80.402 39.7584C73.5114 39.7584 67.894 34.4198 67.894 27.1569C67.894 19.8563 73.5114 14.5554 80.402 14.5554C87.2926 14.5554 92.91 19.8375 92.91 27.1569ZM87.4237 27.1569C87.4237 22.6294 84.1656 19.5168 80.3833 19.5168C76.6009 19.5168 73.3429 22.6294 73.3429 27.1569C73.3429 31.6467 76.6009 34.797 80.3833 34.797C84.1844 34.797 87.4237 31.6278 87.4237 27.1569Z" fill="white"/>
<path d="M113.956 15.5363H119.162V37.9474C119.162 47.2476 113.713 51.0771 107.272 51.0771C101.205 51.0771 97.5537 46.9646 96.1868 43.6256L100.962 41.6259C101.823 43.6822 103.901 46.1157 107.272 46.1157C111.41 46.1157 113.956 43.5313 113.956 38.7019V36.8909H113.769C112.533 38.4001 110.174 39.7584 107.178 39.7584C100.924 39.7584 95.1944 34.2688 95.1944 27.1946C95.1944 20.0827 100.924 14.5365 107.178 14.5365C110.155 14.5365 112.533 15.8759 113.769 17.3473H113.956V15.5363ZM114.331 27.1946C114.331 22.7426 111.391 19.4979 107.646 19.4979C103.864 19.4979 100.681 22.7426 100.681 27.1946C100.681 31.59 103.864 34.7781 107.646 34.7781C111.391 34.797 114.331 31.59 114.331 27.1946Z" fill="white"/>
<path d="M65.5909 27.1002C65.5909 34.363 59.9735 39.7017 53.0829 39.7017C46.1923 39.7017 40.575 34.3441 40.575 27.1002C40.575 19.7996 46.1923 14.4798 53.0829 14.4798C59.9735 14.4798 65.5909 19.7996 65.5909 27.1002ZM60.1233 27.1002C60.1233 22.5727 56.8653 19.46 53.0829 19.46C49.3006 19.46 46.0425 22.5727 46.0425 27.1002C46.0425 31.5899 49.3006 34.7403 53.0829 34.7403C56.8653 34.7403 60.1233 31.5899 60.1233 27.1002Z" fill="white"/>
<path d="M122.457 1.70862H127.85V38.6076H122.457V1.70862Z" fill="white"/>
<path d="M20.0155 34.231C12.1699 34.231 6.02826 27.8548 6.02826 19.9505C6.02826 12.0463 12.1699 5.67009 20.0155 5.67009C24.2472 5.67009 27.3368 7.34903 29.6211 9.49959L33.3848 5.70782C30.2016 2.6329 25.9511 0.293701 20.0155 0.293701C9.2676 0.293701 0.223663 9.1223 0.223663 19.9505C0.223663 30.7788 9.2676 39.6074 20.0155 39.6074C25.8201 39.6074 30.2016 37.6832 33.6282 34.0989C37.1484 30.5524 38.2344 25.5722 38.2344 21.5351C38.2344 20.2712 38.0846 18.9696 37.9161 18.0075H20.0155V23.2518H32.7669C32.3924 26.5342 31.3625 28.7791 29.8458 30.3072C28.0108 32.1747 25.1085 34.231 20.0155 34.231Z" fill="white"/>
</svg>
