<svg width="155" height="46" viewBox="0 0 155 46" fill="none" xmlns="http://www.w3.org/2000/svg">
<g clip-path="url(#clip0_18_181)">
<path d="M42.1146 10.5248C36.4037 10.5248 32.0453 14.2679 30.2418 20.2568C27.5366 16.2143 25.5829 11.7226 24.2303 7.08118H18.0684V22.9518C18.0684 26.096 15.5135 28.6413 12.3575 28.6413C9.20141 28.6413 6.6465 26.096 6.6465 22.9518V7.2309H0.634949V23.1015C0.634949 29.5396 5.89506 34.9297 12.5078 34.9297C19.1205 34.9297 24.3806 29.6894 24.3806 23.1015V20.4065C25.5829 22.9518 27.0858 25.3474 28.7389 27.5932L24.9817 45.1108H31.2939L33.9991 32.3844C36.4037 34.0313 39.2592 34.9297 42.2649 34.9297C49.0279 34.9297 54.4383 29.5396 54.4383 22.8021C54.288 16.0646 48.8776 10.5248 42.1146 10.5248ZM42.1146 28.791C39.5597 28.6413 37.1551 27.743 35.2014 26.096L35.6522 23.7004V23.5507C36.1031 21.0054 37.606 16.6635 41.9644 16.6635C45.2707 16.5137 47.9759 19.2087 48.1262 22.5027C48.2765 25.7966 45.5713 28.4916 42.2649 28.6413L42.1146 28.791Z" fill="white"/>
<path d="M98.9238 10.5249C92.1608 10.5249 86.7504 15.915 86.7504 22.6525C86.7504 29.39 92.1608 34.7801 98.9238 34.7801C105.687 34.7801 111.097 29.39 111.097 22.6525C111.097 15.915 105.687 10.5249 98.9238 10.5249ZM98.9238 29.8392C95.0163 29.8392 91.7099 26.695 91.7099 22.6525C91.7099 18.61 94.866 15.4658 98.9238 15.4658C102.831 15.4658 106.138 18.61 106.138 22.5028C106.138 26.5453 102.982 29.8392 98.9238 29.8392ZM125.976 16.3641C122.519 16.3641 119.664 19.2089 119.664 22.6525V34.1812H114.404V11.2735H119.664V14.8669C121.167 12.621 123.721 11.2735 126.427 11.2735H128.08V16.3641H125.976ZM73.0741 11.2735L76.9816 27.1442L81.34 11.2735H86.4498L79.8371 34.1812H74.577L70.5192 18.1608L66.4614 34.1812H61.2013L54.5886 11.2735H59.6984L64.0568 27.1442L68.1146 11.2735H73.0741ZM143.409 21.7542C147.317 19.658 149.571 15.6155 149.571 11.1238H144.461C144.461 15.0166 141.305 18.0111 137.548 18.0111H136.797V0.194031H131.536V34.1812H136.797V23.4011H137.398C137.999 23.4011 138.6 23.7006 138.901 24.1497L146.265 34.1812H152.577L143.409 21.7542Z" fill="white"/>
</g>
<defs>
<clipPath id="clip0_18_181">
<rect width="153.896" height="44.9169" fill="white" transform="translate(0.634949 0.194031)"/>
</clipPath>
</defs>
</svg>
