<svg width="232" height="50" viewBox="0 0 232 50" fill="none" xmlns="http://www.w3.org/2000/svg">
<path fill-rule="evenodd" clip-rule="evenodd" d="M124.259 34.6012C121.75 37.1124 118.749 38.3748 115.27 38.3748C112.458 38.3748 110.067 37.8092 107.628 36.411V30.6539C109.59 31.967 112.056 33.2172 114.487 33.2172C119.561 33.2172 122.581 29.7727 122.581 24.8914C122.581 20.0061 119.458 16.4596 114.382 16.4596C112.115 16.4596 110.278 17.2638 108.842 18.8749C107.304 20.6204 106.508 23.1155 106.508 26.414V49.1469H106.126C103.33 49.1469 101.064 46.9114 101.064 44.1535V25.5612C101.064 17.6713 105.953 11.3013 114.357 11.3013C118.507 11.3013 121.877 12.7008 124.432 15.5128C126.835 18.1403 128.025 21.4692 128.025 25.4753C128.025 29.0401 126.769 32.0886 124.259 34.6012ZM183.205 34.4086C180.706 37.055 177.49 38.3748 173.592 38.3748C169.476 38.3748 166.122 36.9753 163.57 34.1633C161.168 31.5034 159.977 28.1717 159.977 24.2015C159.977 17.1739 165.475 11.3013 172.711 11.3013C175.502 11.3013 177.925 11.8825 180.374 13.207V19.0229C178.411 17.7098 175.946 16.4596 173.515 16.4596C168.441 16.4596 165.42 19.9034 165.42 24.7867C165.42 29.6031 168.617 33.2172 173.618 33.2172C175.883 33.2172 177.749 32.3799 179.241 30.6931C180.723 29.0171 181.494 26.5546 181.494 23.2466V5.15225C181.494 2.39367 183.761 0.158827 186.556 0.158827H186.938V24.0954C186.938 28.3109 185.702 31.7615 183.205 34.4086ZM198.579 8.74611C198.008 9.3773 197.189 9.66789 196.189 9.66789C194.321 9.66789 192.983 8.3082 192.983 6.47883C192.983 4.60621 194.296 3.34248 196.189 3.34248C198.012 3.34248 199.396 4.67514 199.396 6.47883C199.396 7.37087 199.13 8.13587 198.579 8.74611ZM226.242 23.2466C226.242 21.1293 225.43 19.4533 223.799 18.1835C222.329 17.0408 220.494 16.4596 218.261 16.4596C213.333 16.4596 210.169 20.2596 210.169 24.9448C210.169 29.4544 213.523 33.2172 218.208 33.2172C221.468 33.2172 223.211 31.3392 225.069 28.9996V35.7453C224.123 36.4454 223.033 37.2084 221.922 37.6565C220.748 38.1397 219.347 38.3748 217.729 38.3748C209.892 38.3748 204.725 31.9724 204.725 24.5738C204.725 20.7745 205.921 17.6334 208.33 15.1844C210.885 12.5887 214.237 11.3013 218.341 11.3013C226.121 11.3013 231.687 15.7081 231.687 23.671V37.8443H231.306C228.509 37.8443 226.242 35.6088 226.242 32.8502V23.2466ZM151.714 21.7254C151.026 19.6263 150.163 18.5937 148.179 17.501C143.461 14.9005 138.818 17.1144 136.658 21.7051L151.714 21.7254ZM147.559 38.2958C144.082 39.0249 140.67 38.4627 137.341 36.6272C134.093 34.8384 131.918 32.1778 130.829 28.6624C128.625 21.5524 133.139 13.6294 140.4 11.7108C144 10.76 147.45 11.1904 150.729 12.9975C156.175 16.0007 158.16 20.6454 157.813 26.6303L135.879 26.587C136.202 29.028 137.736 30.9377 139.893 32.1258C142.079 33.3307 144.089 33.6186 145.953 33.0482C148.024 32.4069 149.704 30.7397 151.07 29.1881L155.54 32.4008C153.717 35.619 151.235 37.524 147.559 38.2958V38.2958ZM193.468 11.8324H198.911V37.8443H198.528C195.735 37.8443 193.468 35.6088 193.468 32.8502V11.8324ZM8.81117 37.8442C3.48608 37.8442 0.84375 34.2713 0.84375 29.2819V10.3523C0.84375 7.59443 3.11066 5.35891 5.90645 5.35891H6.28873V11.8323H15.4872V16.9906H6.28873V29.8793C6.28873 32.0709 7.28003 32.6866 9.40308 32.6866H15.4872V37.8442H8.81117ZM40.4294 34.5565C37.7398 37.1002 34.507 38.3747 30.7514 38.3747C27.0307 38.3747 23.8164 37.0988 21.1268 34.5565C18.4283 32.0033 17.0828 28.7541 17.0828 24.8386C17.0828 17.1994 22.9963 11.3018 30.7514 11.3018C34.4734 11.3018 37.6967 12.5872 40.4027 15.1484C43.1184 17.7171 44.4748 20.9568 44.4748 24.8386C44.4748 28.7541 43.1279 32.0033 40.4294 34.5565ZM65.8834 18.0915C65.0846 19.4127 64.4653 20.3601 64.0296 20.9325C63.5493 21.5549 63.0753 22.0523 62.6053 22.3963C66.389 23.6019 67.7982 26.1875 67.7982 30.0395V37.8442H67.4159C64.6201 37.8442 62.3532 35.6087 62.3532 32.8501V30.5693C62.3532 28.075 61.2194 26.3828 58.5401 26.3828H53.5959V37.8442H53.2136C50.4178 37.8442 48.153 35.6087 48.153 32.8501V5.15211C48.153 2.39353 50.4178 0.158691 53.2136 0.158691H53.5959V21.1717H55.2051C56.9733 21.1717 58.1352 20.575 58.8025 19.4465L63.3753 11.8337L69.5787 11.8276L65.8834 18.0915ZM93.9872 34.5565C91.2969 37.1002 88.0641 38.3747 84.3085 38.3747C80.5885 38.3747 77.3742 37.0988 74.6839 34.5565C71.9854 32.0033 70.6399 28.7541 70.6399 24.8386C70.6399 17.1994 76.5534 11.3018 84.3085 11.3018C88.0312 11.3018 91.2538 12.5872 93.9605 15.1484C96.6761 17.7171 98.0319 20.9568 98.0319 24.8386C98.0319 28.7541 96.6857 32.0033 93.9872 34.5565ZM90.0576 18.7849C88.5566 17.2366 86.6514 16.4595 84.3085 16.4595C79.2985 16.4595 76.2993 20.0628 76.2993 24.8386C76.2993 29.5482 79.3698 33.2171 84.3085 33.2171C89.2493 33.2171 92.3184 29.5482 92.3184 24.8386C92.3184 22.3382 91.5566 20.3317 90.0576 18.7849ZM36.4998 18.7849C34.9995 17.2366 33.0937 16.4595 30.7514 16.4595C25.7414 16.4595 22.7422 20.0628 22.7422 24.8386C22.7422 29.5482 25.8127 33.2171 30.7514 33.2171C35.6915 33.2171 38.7606 29.5482 38.7606 24.8386C38.7606 22.3382 37.9995 20.3317 36.4998 18.7849Z" fill="#fff"/>
</svg>
