<svg width="188" height="60" viewBox="0 0 188 60" fill="none" xmlns="http://www.w3.org/2000/svg">
<g clip-path="url(#clip0_18_193)">
<path d="M40.3347 12.8146C40.3042 12.5401 40.0599 12.4181 39.8766 12.4181C39.6934 12.4181 35.6926 12.1131 35.6926 12.1131C35.6926 12.1131 32.9134 9.33738 32.5775 9.06286C32.2721 8.75784 31.6918 8.84934 31.4475 8.91035C31.417 8.91035 30.8367 9.09336 29.8899 9.39838C28.9432 6.6837 27.3246 4.21303 24.4232 4.21303H24.1484C23.3543 3.17596 22.316 2.68793 21.4608 2.68793C14.742 2.68793 11.5047 11.076 10.4969 15.3463C7.87043 16.1698 6.00747 16.7189 5.79369 16.8104C4.32776 17.2679 4.29722 17.2984 4.11398 18.671C3.96128 19.7081 0.143745 49.2036 0.143745 49.2036L29.8594 54.7549L45.9847 51.2777C46.0152 51.2167 40.3653 13.0891 40.3347 12.8146ZM28.2408 9.82541C27.5078 10.0389 26.6221 10.3134 25.7365 10.6185V10.0694C25.7365 8.42231 25.5227 7.08022 25.1257 6.01265C26.6527 6.19566 27.5994 7.87328 28.2408 9.82541ZM23.2627 6.34818C23.6597 7.38525 23.9346 8.84934 23.9346 10.8625V11.1675C22.2854 11.686 20.5446 12.2046 18.7428 12.7841C19.7506 8.94084 21.6746 7.04972 23.2627 6.34818ZM21.3081 4.45704C21.6135 4.45704 21.9189 4.57905 22.1633 4.76206C19.9949 5.76863 17.7044 8.3003 16.7576 13.4246C15.3222 13.8822 13.9479 14.2787 12.6347 14.7057C13.7342 10.8015 16.4828 4.45704 21.3081 4.45704Z" fill="white"/>
<path d="M24.4232 21.2637L22.4687 27.1506C22.4687 27.1506 20.6973 26.205 18.5901 26.205C15.4444 26.205 15.2917 28.1877 15.2917 28.6757C15.2917 31.3599 22.316 32.397 22.316 38.7109C22.316 43.6827 19.1703 46.8854 14.9252 46.8854C9.79447 46.8854 7.22909 43.7132 7.22909 43.7132L8.6034 39.1989C8.6034 39.1989 11.2909 41.5171 13.5509 41.5171C15.0474 41.5171 15.6582 40.358 15.6582 39.5039C15.6582 35.9962 9.91663 35.8437 9.91663 30.0483C9.91663 25.1985 13.3982 20.5012 20.453 20.5012C23.0795 20.4707 24.4232 21.2637 24.4232 21.2637Z" fill="white"/>
<path d="M64.7975 32.3359C63.1788 31.4818 62.3542 30.7193 62.3542 29.7127C62.3542 28.4316 63.5148 27.6081 65.3166 27.6081C67.4239 27.6081 69.2869 28.4621 69.2869 28.4621L70.7528 23.9783C70.7528 23.9783 69.409 22.9413 65.4388 22.9413C59.911 22.9413 56.0629 26.1135 56.0629 30.5668C56.0629 33.0984 57.8648 35.0201 60.247 36.3927C62.2015 37.4602 62.8734 38.2533 62.8734 39.4124C62.8734 40.602 61.8961 41.578 60.0943 41.578C57.4373 41.578 54.9024 40.2054 54.9024 40.2054L53.3449 44.6892C53.3449 44.6892 55.6659 46.2448 59.5751 46.2448C65.2556 46.2448 69.3785 43.4386 69.3785 38.4058C69.3174 35.6606 67.2712 33.7695 64.7975 32.3359ZM87.4583 22.8803C84.6486 22.8803 82.4497 24.2223 80.77 26.2355L80.7089 26.205L83.1521 13.5161H76.8303L70.6612 45.8483H76.983L79.0903 34.8066C79.9149 30.6278 82.0832 28.0351 84.0989 28.0351C85.5343 28.0351 86.084 29.0112 86.084 30.3838C86.084 31.2378 86.0229 32.3359 85.8091 33.19L83.427 45.8483H89.7488L92.2226 32.7934C92.4975 31.4208 92.6807 29.7737 92.6807 28.6451C92.6502 25.0154 90.7872 22.8803 87.4583 22.8803ZM106.974 22.8803C99.3385 22.8803 94.2993 29.7432 94.2993 37.3992C94.2993 42.2796 97.3228 46.2448 103.003 46.2448C110.486 46.2448 115.525 39.5649 115.525 31.7259C115.555 27.181 112.929 22.8803 106.974 22.8803ZM103.858 41.4255C101.69 41.4255 100.804 39.5954 100.804 37.2772C100.804 33.6475 102.667 27.7606 106.118 27.7606C108.348 27.7606 109.111 29.7127 109.111 31.5733C109.111 35.4471 107.187 41.4255 103.858 41.4255ZM131.742 22.8803C127.466 22.8803 125.053 26.6625 125.053 26.6625H124.992L125.359 23.2768H119.739C119.464 25.5644 118.945 29.0722 118.457 31.6649L114.089 54.8159H120.411L122.183 45.4518H122.335C122.335 45.4518 123.649 46.2753 126.031 46.2753C133.482 46.2753 138.338 38.6498 138.338 30.9633C138.308 26.693 136.384 22.8803 131.742 22.8803ZM125.695 41.4865C124.046 41.4865 123.068 40.5409 123.068 40.5409L124.107 34.6541C124.84 30.6888 126.916 28.0961 129.115 28.0961C131.07 28.0961 131.65 29.8957 131.65 31.5733C131.681 35.6606 129.237 41.4865 125.695 41.4865ZM147.348 13.8211C145.332 13.8211 143.713 15.4378 143.713 17.4814C143.713 19.342 144.905 20.6536 146.706 20.6536H146.767C148.753 20.6536 150.432 19.3115 150.463 16.9934C150.493 15.1327 149.241 13.8211 147.348 13.8211ZM138.491 45.8178H144.813L149.089 23.3683H142.736L138.491 45.8178ZM165.214 23.3378H160.816L161.03 22.3007C161.396 20.1351 162.679 18.2439 164.817 18.2439C165.947 18.2439 166.832 18.5795 166.832 18.5795L168.054 13.6076C168.054 13.6076 166.985 13.0586 164.603 13.0586C162.374 13.0586 160.114 13.6991 158.403 15.1632C156.235 16.9934 155.227 19.647 154.738 22.3312L154.555 23.3683H151.593L150.646 28.1571H153.608L150.249 45.8483H156.571L159.93 28.1571H164.298L165.214 23.3378ZM180.453 23.3683C180.453 23.3683 176.483 33.3425 174.742 38.8023H174.681C174.559 37.0332 173.124 23.3683 173.124 23.3683H166.466L170.283 43.9267C170.345 44.3842 170.314 44.6587 170.131 44.9637C169.398 46.3973 168.146 47.7699 166.68 48.7765C165.489 49.6306 164.145 50.2101 163.076 50.5761L164.847 55.9445C166.13 55.67 168.818 54.6024 171.047 52.4978C173.918 49.8136 176.605 45.6348 179.354 39.9614L187.081 23.3378H180.453V23.3683Z" fill="white"/>
<path d="M39.8766 12.3571C39.6934 12.3571 35.6926 12.0521 35.6926 12.0521C35.6926 12.0521 32.9134 9.27638 32.5775 9.00186C32.4553 8.87985 32.3026 8.81885 32.1805 8.81885L29.951 54.755L46.0763 51.2777C46.0763 51.2777 40.4263 13.0891 40.3958 12.8146C40.2736 12.5401 40.0598 12.4181 39.8766 12.3571Z" fill="white"/>
</g>
<defs>
<clipPath id="clip0_18_193">
<rect width="186.906" height="58.564" fill="white" transform="translate(0.174286 0.674805)"/>
</clipPath>
</defs>
</svg>
